<svg width="2000" height="1000" xmlns="http://www.w3.org/2000/svg" version="1.1">


<!-- internal style sheet -->
<style type="text/css"><![CDATA[
 rect.background{fill:white}
 rect{fill:none; stroke:rgb(25,25,25); stroke-width:2}
 text{font-family:Helvetica; text-anchor:middle; fill:rgb(25,25,25)}
 line{stroke:rgb(25,25,25); stroke-width:4}
 path{fill:none; stroke:rgb(25,25,25); stroke-width:2}
 circle{fill:white; stroke:black; stroke-width:2}

 path.p0{fill:rgb(0,102,255); stroke:rgb(25,25,25); stroke-width:2}
 path.ps0{fill:rgb(0,77,191); stroke:rgb(20,20,20); stroke-width:2}
 rect.r0{fill:rgb(0,102,255); stroke:rgb(25,25,25); stroke-width:2}
 path.p1{fill:rgb(51,255,0); stroke:rgb(25,25,25); stroke-width:2}
 path.ps1{fill:rgb(38,191,0); stroke:rgb(20,20,20); stroke-width:2}
 rect.r1{fill:rgb(51,255,0); stroke:rgb(25,25,25); stroke-width:2}
 path.p2{fill:rgb(255,0,0); stroke:rgb(25,25,25); stroke-width:2}
 path.ps2{fill:rgb(191,0,0); stroke:rgb(20,20,20); stroke-width:2}
 rect.r2{fill:rgb(255,0,0); stroke:rgb(25,25,25); stroke-width:2}
]]></style>

 <rect class="background" width="2000" height="1000"/>
  <!-- cells -->
  <path class="p2" d="M 160 164 L 244 164 L 244 80 L 160 80 L 160 164"/>
  <line x1="160" y1="164" x2="160" y2="80"/>
  <line x1="160" y1="80" x2="244" y2="80"/>
  <path class="p2" d="M 244 164 L 328 164 L 328 80 L 244 80 L 244 164"/>
  <line x1="244" y1="80" x2="328" y2="80"/>
  <path class="p2" d="M 328 164 L 412 164 L 412 80 L 328 80 L 328 164"/>
  <line x1="328" y1="80" x2="412" y2="80"/>
  <path class="p2" d="M 412 164 L 496 164 L 496 80 L 412 80 L 412 164"/>
  <line x1="412" y1="80" x2="496" y2="80"/>
  <path class="p2" d="M 496 164 L 580 164 L 580 80 L 496 80 L 496 164"/>
  <line x1="496" y1="80" x2="580" y2="80"/>
  <path class="p2" d="M 580 164 L 664 164 L 664 80 L 580 80 L 580 164"/>
  <line x1="580" y1="80" x2="664" y2="80"/>
  <path class="p2" d="M 664 164 L 748 164 L 748 80 L 664 80 L 664 164"/>
  <line x1="664" y1="80" x2="748" y2="80"/>
  <path class="p2" d="M 748 164 L 832 164 L 832 80 L 748 80 L 748 164"/>
  <line x1="748" y1="80" x2="832" y2="80"/>
  <path class="p2" d="M 832 164 L 916 164 L 916 80 L 832 80 L 832 164"/>
  <line x1="832" y1="80" x2="916" y2="80"/>
  <path class="p2" d="M 916 164 L 1000 164 L 1000 80 L 916 80 L 916 164"/>
  <line x1="916" y1="80" x2="1000" y2="80"/>
  <path class="p2" d="M 1000 164 L 1084 164 L 1084 80 L 1000 80 L 1000 164"/>
  <line x1="1000" y1="80" x2="1084" y2="80"/>
  <path class="p2" d="M 1084 164 L 1168 164 L 1168 80 L 1084 80 L 1084 164"/>
  <line x1="1084" y1="80" x2="1168" y2="80"/>
  <path class="p2" d="M 1168 164 L 1252 164 L 1252 80 L 1168 80 L 1168 164"/>
  <line x1="1168" y1="80" x2="1252" y2="80"/>
  <path class="p2" d="M 1252 164 L 1336 164 L 1336 80 L 1252 80 L 1252 164"/>
  <line x1="1252" y1="80" x2="1336" y2="80"/>
  <path class="p2" d="M 1336 164 L 1420 164 L 1420 80 L 1336 80 L 1336 164"/>
  <line x1="1336" y1="80" x2="1420" y2="80"/>
  <path class="p2" d="M 1420 164 L 1504 164 L 1504 80 L 1420 80 L 1420 164"/>
  <line x1="1420" y1="80" x2="1504" y2="80"/>
  <path class="p2" d="M 1504 164 L 1588 164 L 1588 80 L 1504 80 L 1504 164"/>
  <line x1="1504" y1="80" x2="1588" y2="80"/>
  <path class="p2" d="M 1588 164 L 1672 164 L 1672 80 L 1588 80 L 1588 164"/>
  <line x1="1588" y1="80" x2="1672" y2="80"/>
  <path class="p2" d="M 1672 164 L 1756 164 L 1756 80 L 1672 80 L 1672 164"/>
  <line x1="1672" y1="80" x2="1756" y2="80"/>
  <path class="p2" d="M 1756 164 L 1840 164 L 1840 80 L 1756 80 L 1756 164"/>
  <line x1="1840" y1="164" x2="1840" y2="80"/>
  <line x1="1756" y1="80" x2="1840" y2="80"/>
  <path class="p1" d="M 160 500 L 244 500 L 244 416 L 160 416 L 160 500"/>
  <line x1="160" y1="500" x2="160" y2="416"/>
  <path class="p1" d="M 244 500 L 328 500 L 328 416 L 244 416 L 244 500"/>
  <path class="p1" d="M 328 500 L 412 500 L 412 416 L 328 416 L 328 500"/>
  <path class="p1" d="M 412 500 L 496 500 L 496 416 L 412 416 L 412 500"/>
  <path class="p1" d="M 496 500 L 580 500 L 580 416 L 496 416 L 496 500"/>
  <path class="p1" d="M 580 500 L 664 500 L 664 416 L 580 416 L 580 500"/>
  <path class="p1" d="M 664 500 L 748 500 L 748 416 L 664 416 L 664 500"/>
  <path class="p1" d="M 748 500 L 832 500 L 832 416 L 748 416 L 748 500"/>
  <path class="p1" d="M 832 500 L 916 500 L 916 416 L 832 416 L 832 500"/>
  <path class="p1" d="M 916 500 L 1000 500 L 1000 416 L 916 416 L 916 500"/>
  <path class="p1" d="M 1000 500 L 1084 500 L 1084 416 L 1000 416 L 1000 500"/>
  <path class="p1" d="M 1084 500 L 1168 500 L 1168 416 L 1084 416 L 1084 500"/>
  <path class="p1" d="M 1168 500 L 1252 500 L 1252 416 L 1168 416 L 1168 500"/>
  <path class="p1" d="M 1252 500 L 1336 500 L 1336 416 L 1252 416 L 1252 500"/>
  <path class="p1" d="M 1336 500 L 1420 500 L 1420 416 L 1336 416 L 1336 500"/>
  <path class="p1" d="M 1420 500 L 1504 500 L 1504 416 L 1420 416 L 1420 500"/>
  <path class="p1" d="M 1504 500 L 1588 500 L 1588 416 L 1504 416 L 1504 500"/>
  <path class="p1" d="M 1588 500 L 1672 500 L 1672 416 L 1588 416 L 1588 500"/>
  <path class="p1" d="M 1672 500 L 1756 500 L 1756 416 L 1672 416 L 1672 500"/>
  <path class="p1" d="M 1756 500 L 1840 500 L 1840 416 L 1756 416 L 1756 500"/>
  <line x1="1840" y1="500" x2="1840" y2="416"/>
  <path class="p1" d="M 160 416 L 244 416 L 244 332 L 160 332 L 160 416"/>
  <line x1="160" y1="416" x2="160" y2="332"/>
  <path class="p1" d="M 244 416 L 328 416 L 328 332 L 244 332 L 244 416"/>
  <path class="p1" d="M 328 416 L 412 416 L 412 332 L 328 332 L 328 416"/>
  <path class="p1" d="M 412 416 L 496 416 L 496 332 L 412 332 L 412 416"/>
  <path class="p1" d="M 496 416 L 580 416 L 580 332 L 496 332 L 496 416"/>
  <path class="p1" d="M 580 416 L 664 416 L 664 332 L 580 332 L 580 416"/>
  <path class="p1" d="M 664 416 L 748 416 L 748 332 L 664 332 L 664 416"/>
  <path class="p1" d="M 748 416 L 832 416 L 832 332 L 748 332 L 748 416"/>
  <path class="p1" d="M 832 416 L 916 416 L 916 332 L 832 332 L 832 416"/>
  <path class="p1" d="M 916 416 L 1000 416 L 1000 332 L 916 332 L 916 416"/>
  <path class="p1" d="M 1000 416 L 1084 416 L 1084 332 L 1000 332 L 1000 416"/>
  <path class="p1" d="M 1084 416 L 1168 416 L 1168 332 L 1084 332 L 1084 416"/>
  <path class="p1" d="M 1168 416 L 1252 416 L 1252 332 L 1168 332 L 1168 416"/>
  <path class="p1" d="M 1252 416 L 1336 416 L 1336 332 L 1252 332 L 1252 416"/>
  <path class="p1" d="M 1336 416 L 1420 416 L 1420 332 L 1336 332 L 1336 416"/>
  <path class="p1" d="M 1420 416 L 1504 416 L 1504 332 L 1420 332 L 1420 416"/>
  <path class="p1" d="M 1504 416 L 1588 416 L 1588 332 L 1504 332 L 1504 416"/>
  <path class="p1" d="M 1588 416 L 1672 416 L 1672 332 L 1588 332 L 1588 416"/>
  <path class="p1" d="M 1672 416 L 1756 416 L 1756 332 L 1672 332 L 1672 416"/>
  <path class="p1" d="M 1756 416 L 1840 416 L 1840 332 L 1756 332 L 1756 416"/>
  <line x1="1840" y1="416" x2="1840" y2="332"/>
  <path class="p1" d="M 160 332 L 244 332 L 244 248 L 160 248 L 160 332"/>
  <line x1="160" y1="332" x2="160" y2="248"/>
  <path class="p1" d="M 244 332 L 328 332 L 328 248 L 244 248 L 244 332"/>
  <path class="p1" d="M 328 332 L 412 332 L 412 248 L 328 248 L 328 332"/>
  <path class="p1" d="M 412 332 L 496 332 L 496 248 L 412 248 L 412 332"/>
  <path class="p1" d="M 496 332 L 580 332 L 580 248 L 496 248 L 496 332"/>
  <path class="p1" d="M 580 332 L 664 332 L 664 248 L 580 248 L 580 332"/>
  <path class="p1" d="M 664 332 L 748 332 L 748 248 L 664 248 L 664 332"/>
  <path class="p1" d="M 748 332 L 832 332 L 832 248 L 748 248 L 748 332"/>
  <path class="p1" d="M 832 332 L 916 332 L 916 248 L 832 248 L 832 332"/>
  <path class="p1" d="M 916 332 L 1000 332 L 1000 248 L 916 248 L 916 332"/>
  <path class="p1" d="M 1000 332 L 1084 332 L 1084 248 L 1000 248 L 1000 332"/>
  <path class="p1" d="M 1084 332 L 1168 332 L 1168 248 L 1084 248 L 1084 332"/>
  <path class="p1" d="M 1168 332 L 1252 332 L 1252 248 L 1168 248 L 1168 332"/>
  <path class="p1" d="M 1252 332 L 1336 332 L 1336 248 L 1252 248 L 1252 332"/>
  <path class="p1" d="M 1336 332 L 1420 332 L 1420 248 L 1336 248 L 1336 332"/>
  <path class="p1" d="M 1420 332 L 1504 332 L 1504 248 L 1420 248 L 1420 332"/>
  <path class="p1" d="M 1504 332 L 1588 332 L 1588 248 L 1504 248 L 1504 332"/>
  <path class="p1" d="M 1588 332 L 1672 332 L 1672 248 L 1588 248 L 1588 332"/>
  <path class="p1" d="M 1672 332 L 1756 332 L 1756 248 L 1672 248 L 1672 332"/>
  <path class="p1" d="M 1756 332 L 1840 332 L 1840 248 L 1756 248 L 1756 332"/>
  <line x1="1840" y1="332" x2="1840" y2="248"/>
  <path class="p1" d="M 160 248 L 244 248 L 244 164 L 160 164 L 160 248"/>
  <line x1="160" y1="248" x2="160" y2="164"/>
  <path class="p1" d="M 244 248 L 328 248 L 328 164 L 244 164 L 244 248"/>
  <path class="p1" d="M 328 248 L 412 248 L 412 164 L 328 164 L 328 248"/>
  <path class="p1" d="M 412 248 L 496 248 L 496 164 L 412 164 L 412 248"/>
  <path class="p1" d="M 496 248 L 580 248 L 580 164 L 496 164 L 496 248"/>
  <path class="p1" d="M 580 248 L 664 248 L 664 164 L 580 164 L 580 248"/>
  <path class="p1" d="M 664 248 L 748 248 L 748 164 L 664 164 L 664 248"/>
  <path class="p1" d="M 748 248 L 832 248 L 832 164 L 748 164 L 748 248"/>
  <path class="p1" d="M 832 248 L 916 248 L 916 164 L 832 164 L 832 248"/>
  <path class="p1" d="M 916 248 L 1000 248 L 1000 164 L 916 164 L 916 248"/>
  <path class="p1" d="M 1000 248 L 1084 248 L 1084 164 L 1000 164 L 1000 248"/>
  <path class="p1" d="M 1084 248 L 1168 248 L 1168 164 L 1084 164 L 1084 248"/>
  <path class="p1" d="M 1168 248 L 1252 248 L 1252 164 L 1168 164 L 1168 248"/>
  <path class="p1" d="M 1252 248 L 1336 248 L 1336 164 L 1252 164 L 1252 248"/>
  <path class="p1" d="M 1336 248 L 1420 248 L 1420 164 L 1336 164 L 1336 248"/>
  <path class="p1" d="M 1420 248 L 1504 248 L 1504 164 L 1420 164 L 1420 248"/>
  <path class="p1" d="M 1504 248 L 1588 248 L 1588 164 L 1504 164 L 1504 248"/>
  <path class="p1" d="M 1588 248 L 1672 248 L 1672 164 L 1588 164 L 1588 248"/>
  <path class="p1" d="M 1672 248 L 1756 248 L 1756 164 L 1672 164 L 1672 248"/>
  <path class="p1" d="M 1756 248 L 1840 248 L 1840 164 L 1756 164 L 1756 248"/>
  <line x1="1840" y1="248" x2="1840" y2="164"/>
  <path class="p0" d="M 160 920 L 244 920 L 244 836 L 160 836 L 160 920"/>
  <line x1="160" y1="920" x2="160" y2="836"/>
  <line x1="160" y1="920" x2="244" y2="920"/>
  <path class="p0" d="M 244 920 L 328 920 L 328 836 L 244 836 L 244 920"/>
  <line x1="244" y1="920" x2="328" y2="920"/>
  <path class="p0" d="M 328 920 L 412 920 L 412 836 L 328 836 L 328 920"/>
  <line x1="328" y1="920" x2="412" y2="920"/>
  <path class="p0" d="M 412 920 L 496 920 L 496 836 L 412 836 L 412 920"/>
  <line x1="412" y1="920" x2="496" y2="920"/>
  <path class="p0" d="M 496 920 L 580 920 L 580 836 L 496 836 L 496 920"/>
  <line x1="496" y1="920" x2="580" y2="920"/>
  <path class="p0" d="M 580 920 L 664 920 L 664 836 L 580 836 L 580 920"/>
  <line x1="580" y1="920" x2="664" y2="920"/>
  <path class="p0" d="M 664 920 L 748 920 L 748 836 L 664 836 L 664 920"/>
  <line x1="664" y1="920" x2="748" y2="920"/>
  <path class="p0" d="M 748 920 L 832 920 L 832 836 L 748 836 L 748 920"/>
  <line x1="748" y1="920" x2="832" y2="920"/>
  <path class="p0" d="M 832 920 L 916 920 L 916 836 L 832 836 L 832 920"/>
  <line x1="832" y1="920" x2="916" y2="920"/>
  <path class="p0" d="M 916 920 L 1000 920 L 1000 836 L 916 836 L 916 920"/>
  <line x1="916" y1="920" x2="1000" y2="920"/>
  <path class="p0" d="M 1000 920 L 1084 920 L 1084 836 L 1000 836 L 1000 920"/>
  <line x1="1000" y1="920" x2="1084" y2="920"/>
  <path class="p0" d="M 1084 920 L 1168 920 L 1168 836 L 1084 836 L 1084 920"/>
  <line x1="1084" y1="920" x2="1168" y2="920"/>
  <path class="p0" d="M 1168 920 L 1252 920 L 1252 836 L 1168 836 L 1168 920"/>
  <line x1="1168" y1="920" x2="1252" y2="920"/>
  <path class="p0" d="M 1252 920 L 1336 920 L 1336 836 L 1252 836 L 1252 920"/>
  <line x1="1252" y1="920" x2="1336" y2="920"/>
  <path class="p0" d="M 1336 920 L 1420 920 L 1420 836 L 1336 836 L 1336 920"/>
  <line x1="1336" y1="920" x2="1420" y2="920"/>
  <path class="p0" d="M 1420 920 L 1504 920 L 1504 836 L 1420 836 L 1420 920"/>
  <line x1="1420" y1="920" x2="1504" y2="920"/>
  <path class="p0" d="M 1504 920 L 1588 920 L 1588 836 L 1504 836 L 1504 920"/>
  <line x1="1504" y1="920" x2="1588" y2="920"/>
  <path class="p0" d="M 1588 920 L 1672 920 L 1672 836 L 1588 836 L 1588 920"/>
  <line x1="1588" y1="920" x2="1672" y2="920"/>
  <path class="p0" d="M 1672 920 L 1756 920 L 1756 836 L 1672 836 L 1672 920"/>
  <line x1="1672" y1="920" x2="1756" y2="920"/>
  <path class="p0" d="M 1756 920 L 1840 920 L 1840 836 L 1756 836 L 1756 920"/>
  <line x1="1840" y1="920" x2="1840" y2="836"/>
  <line x1="1756" y1="920" x2="1840" y2="920"/>
  <path class="p0" d="M 160 836 L 244 836 L 244 752 L 160 752 L 160 836"/>
  <line x1="160" y1="836" x2="160" y2="752"/>
  <path class="p0" d="M 244 836 L 328 836 L 328 752 L 244 752 L 244 836"/>
  <path class="p0" d="M 328 836 L 412 836 L 412 752 L 328 752 L 328 836"/>
  <path class="p0" d="M 412 836 L 496 836 L 496 752 L 412 752 L 412 836"/>
  <path class="p0" d="M 496 836 L 580 836 L 580 752 L 496 752 L 496 836"/>
  <path class="p0" d="M 580 836 L 664 836 L 664 752 L 580 752 L 580 836"/>
  <path class="p0" d="M 664 836 L 748 836 L 748 752 L 664 752 L 664 836"/>
  <path class="p0" d="M 748 836 L 832 836 L 832 752 L 748 752 L 748 836"/>
  <path class="p0" d="M 832 836 L 916 836 L 916 752 L 832 752 L 832 836"/>
  <path class="p0" d="M 916 836 L 1000 836 L 1000 752 L 916 752 L 916 836"/>
  <path class="p0" d="M 1000 836 L 1084 836 L 1084 752 L 1000 752 L 1000 836"/>
  <path class="p0" d="M 1084 836 L 1168 836 L 1168 752 L 1084 752 L 1084 836"/>
  <path class="p0" d="M 1168 836 L 1252 836 L 1252 752 L 1168 752 L 1168 836"/>
  <path class="p0" d="M 1252 836 L 1336 836 L 1336 752 L 1252 752 L 1252 836"/>
  <path class="p0" d="M 1336 836 L 1420 836 L 1420 752 L 1336 752 L 1336 836"/>
  <path class="p0" d="M 1420 836 L 1504 836 L 1504 752 L 1420 752 L 1420 836"/>
  <path class="p0" d="M 1504 836 L 1588 836 L 1588 752 L 1504 752 L 1504 836"/>
  <path class="p0" d="M 1588 836 L 1672 836 L 1672 752 L 1588 752 L 1588 836"/>
  <path class="p0" d="M 1672 836 L 1756 836 L 1756 752 L 1672 752 L 1672 836"/>
  <path class="p0" d="M 1756 836 L 1840 836 L 1840 752 L 1756 752 L 1756 836"/>
  <line x1="1840" y1="836" x2="1840" y2="752"/>
  <path class="p0" d="M 160 752 L 244 752 L 244 668 L 160 668 L 160 752"/>
  <line x1="160" y1="752" x2="160" y2="668"/>
  <path class="p0" d="M 244 752 L 328 752 L 328 668 L 244 668 L 244 752"/>
  <path class="p0" d="M 328 752 L 412 752 L 412 668 L 328 668 L 328 752"/>
  <path class="p0" d="M 412 752 L 496 752 L 496 668 L 412 668 L 412 752"/>
  <path class="p0" d="M 496 752 L 580 752 L 580 668 L 496 668 L 496 752"/>
  <path class="p0" d="M 580 752 L 664 752 L 664 668 L 580 668 L 580 752"/>
  <path class="p0" d="M 664 752 L 748 752 L 748 668 L 664 668 L 664 752"/>
  <path class="p0" d="M 748 752 L 832 752 L 832 668 L 748 668 L 748 752"/>
  <path class="p0" d="M 832 752 L 916 752 L 916 668 L 832 668 L 832 752"/>
  <path class="p0" d="M 916 752 L 1000 752 L 1000 668 L 916 668 L 916 752"/>
  <path class="p0" d="M 1000 752 L 1084 752 L 1084 668 L 1000 668 L 1000 752"/>
  <path class="p0" d="M 1084 752 L 1168 752 L 1168 668 L 1084 668 L 1084 752"/>
  <path class="p0" d="M 1168 752 L 1252 752 L 1252 668 L 1168 668 L 1168 752"/>
  <path class="p0" d="M 1252 752 L 1336 752 L 1336 668 L 1252 668 L 1252 752"/>
  <path class="p0" d="M 1336 752 L 1420 752 L 1420 668 L 1336 668 L 1336 752"/>
  <path class="p0" d="M 1420 752 L 1504 752 L 1504 668 L 1420 668 L 1420 752"/>
  <path class="p0" d="M 1504 752 L 1588 752 L 1588 668 L 1504 668 L 1504 752"/>
  <path class="p0" d="M 1588 752 L 1672 752 L 1672 668 L 1588 668 L 1588 752"/>
  <path class="p0" d="M 1672 752 L 1756 752 L 1756 668 L 1672 668 L 1672 752"/>
  <path class="p0" d="M 1756 752 L 1840 752 L 1840 668 L 1756 668 L 1756 752"/>
  <line x1="1840" y1="752" x2="1840" y2="668"/>
  <path class="p0" d="M 160 668 L 244 668 L 244 584 L 160 584 L 160 668"/>
  <line x1="160" y1="668" x2="160" y2="584"/>
  <path class="p0" d="M 244 668 L 328 668 L 328 584 L 244 584 L 244 668"/>
  <path class="p0" d="M 328 668 L 412 668 L 412 584 L 328 584 L 328 668"/>
  <path class="p0" d="M 412 668 L 496 668 L 496 584 L 412 584 L 412 668"/>
  <path class="p0" d="M 496 668 L 580 668 L 580 584 L 496 584 L 496 668"/>
  <path class="p0" d="M 580 668 L 664 668 L 664 584 L 580 584 L 580 668"/>
  <path class="p0" d="M 664 668 L 748 668 L 748 584 L 664 584 L 664 668"/>
  <path class="p0" d="M 748 668 L 832 668 L 832 584 L 748 584 L 748 668"/>
  <path class="p0" d="M 832 668 L 916 668 L 916 584 L 832 584 L 832 668"/>
  <path class="p0" d="M 916 668 L 1000 668 L 1000 584 L 916 584 L 916 668"/>
  <path class="p0" d="M 1000 668 L 1084 668 L 1084 584 L 1000 584 L 1000 668"/>
  <path class="p0" d="M 1084 668 L 1168 668 L 1168 584 L 1084 584 L 1084 668"/>
  <path class="p0" d="M 1168 668 L 1252 668 L 1252 584 L 1168 584 L 1168 668"/>
  <path class="p0" d="M 1252 668 L 1336 668 L 1336 584 L 1252 584 L 1252 668"/>
  <path class="p0" d="M 1336 668 L 1420 668 L 1420 584 L 1336 584 L 1336 668"/>
  <path class="p0" d="M 1420 668 L 1504 668 L 1504 584 L 1420 584 L 1420 668"/>
  <path class="p0" d="M 1504 668 L 1588 668 L 1588 584 L 1504 584 L 1504 668"/>
  <path class="p0" d="M 1588 668 L 1672 668 L 1672 584 L 1588 584 L 1588 668"/>
  <path class="p0" d="M 1672 668 L 1756 668 L 1756 584 L 1672 584 L 1672 668"/>
  <path class="p0" d="M 1756 668 L 1840 668 L 1840 584 L 1756 584 L 1756 668"/>
  <line x1="1840" y1="668" x2="1840" y2="584"/>
  <path class="p0" d="M 160 584 L 244 584 L 244 500 L 160 500 L 160 584"/>
  <line x1="160" y1="584" x2="160" y2="500"/>
  <path class="p0" d="M 244 584 L 328 584 L 328 500 L 244 500 L 244 584"/>
  <path class="p0" d="M 328 584 L 412 584 L 412 500 L 328 500 L 328 584"/>
  <path class="p0" d="M 412 584 L 496 584 L 496 500 L 412 500 L 412 584"/>
  <path class="p0" d="M 496 584 L 580 584 L 580 500 L 496 500 L 496 584"/>
  <path class="p0" d="M 580 584 L 664 584 L 664 500 L 580 500 L 580 584"/>
  <path class="p0" d="M 664 584 L 748 584 L 748 500 L 664 500 L 664 584"/>
  <path class="p0" d="M 748 584 L 832 584 L 832 500 L 748 500 L 748 584"/>
  <path class="p0" d="M 832 584 L 916 584 L 916 500 L 832 500 L 832 584"/>
  <path class="p0" d="M 916 584 L 1000 584 L 1000 500 L 916 500 L 916 584"/>
  <path class="p0" d="M 1000 584 L 1084 584 L 1084 500 L 1000 500 L 1000 584"/>
  <path class="p0" d="M 1084 584 L 1168 584 L 1168 500 L 1084 500 L 1084 584"/>
  <path class="p0" d="M 1168 584 L 1252 584 L 1252 500 L 1168 500 L 1168 584"/>
  <path class="p0" d="M 1252 584 L 1336 584 L 1336 500 L 1252 500 L 1252 584"/>
  <path class="p0" d="M 1336 584 L 1420 584 L 1420 500 L 1336 500 L 1336 584"/>
  <path class="p0" d="M 1420 584 L 1504 584 L 1504 500 L 1420 500 L 1420 584"/>
  <path class="p0" d="M 1504 584 L 1588 584 L 1588 500 L 1504 500 L 1504 584"/>
  <path class="p0" d="M 1588 584 L 1672 584 L 1672 500 L 1588 500 L 1588 584"/>
  <path class="p0" d="M 1672 584 L 1756 584 L 1756 500 L 1672 500 L 1672 584"/>
  <path class="p0" d="M 1756 584 L 1840 584 L 1840 500 L 1756 500 L 1756 584"/>
  <line x1="1840" y1="584" x2="1840" y2="500"/>

</svg>